<svg xmlns="http://www.w3.org/2000/svg" viewBox="0 0 24 24"><defs><style>.cls-1,.cls-2{fill:none;}.cls-1{stroke:#323232;stroke-linecap:round;stroke-linejoin:round;stroke-width:1.5px;}</style></defs><g id="Слой_2" data-name="Слой 2"><g id="Icons"><path class="cls-1" d="M10.86,13.14a12.61,12.61,0,0,1-2.64-3.8.75.75,0,0,1,.16-.83l.82-.82a1.54,1.54,0,0,0,.09-2.21L8.11,4.31a2,2,0,0,0-2.82,0L4.63,5a3.2,3.2,0,0,0-.85,2.87,15.74,15.74,0,0,0,4.47,7.92,15.74,15.74,0,0,0,7.92,4.47A3.2,3.2,0,0,0,19,19.37l.65-.66a2,2,0,0,0,0-2.82l-1.17-1.18a1.52,1.52,0,0,0-2.13,0l-.9.91a.75.75,0,0,1-.83.16A12.61,12.61,0,0,1,10.86,13.14Z"/><rect class="cls-2" width="24" height="24"/></g></g></svg>