<svg xmlns="http://www.w3.org/2000/svg" xmlns:xlink="http://www.w3.org/1999/xlink" viewBox="0 0 57.72 20.06"><defs><style>.cls-1{fill:none;}.cls-2{clip-path:url(#clip-path);}.cls-3{fill:#2fabf7;}.cls-4{fill:#228fe0;}.cls-5{fill:#0571c1;}</style><clipPath id="clip-path" transform="translate(0 0)"><rect class="cls-1" width="57.72" height="20.06"/></clipPath></defs><g id="Слой_2" data-name="Слой 2"><g id="Icons"><g id="Векторный_смарт-объект" data-name="Векторный смарт-объект"><g class="cls-2"><polygon class="cls-3" points="4.95 4.95 6.96 4.95 5.96 2.38 4.95 4.95"/><g class="cls-2"><path class="cls-4" d="M30,2.75a1.8,1.8,0,0,0-.73-.09H27.39V4.12h1.84A1.8,1.8,0,0,0,30,4a.72.72,0,0,0,.27-.64A.5.5,0,0,0,30,2.75" transform="translate(0 0)"/><path class="cls-5" d="M49.57,0V1.1L49,0H44.71V1.1L44.16,0H38.3a5.57,5.57,0,0,0-2.57.55V0H31.61V.55A2.63,2.63,0,0,0,29.87,0H15.12l-1,2.29L13.1,0H8.43V1.1L7.88,0H3.94L2.11,4.31,0,9.07H4.67L5.22,7.6H6.51l.54,1.47h5.32V8l.46,1.1h2.65L15.94,8v1.1H28.68V6.69h.18c.18,0,.18,0,.18.27V9h6.6V8.43A5.53,5.53,0,0,0,38.11,9h2.75l.55-1.47H42.7L43.24,9h5.32V7.6L49.38,9h4.31V0Zm-31,7.7H17v-5l-2.2,5H13.47l-2.2-5v5H8.15L7.51,6.32H4.4L3.85,7.79H2.11L4.86,1.28H7.15L9.71,7.42V1.28h2.48l2,4.4L16,1.28H18.6Zm6.23-5H21.26V3.85h3.48V5.13H21.26V6.41h3.57V7.79H19.7V1.28h5.13ZM31.7,5.31A2.35,2.35,0,0,1,32,6.5V7.79H30.42V7a2.16,2.16,0,0,0-.28-1.28c-.27-.27-.55-.27-1.1-.27H27.39V7.79H25.84V1.28h3.48a3.46,3.46,0,0,1,1.83.28A1.54,1.54,0,0,1,31.88,3a1.81,1.81,0,0,1-1.1,1.74,1.81,1.81,0,0,1,.92.55M34.45,7.7H32.89V1.19h1.56Zm18,0H50.3L47.37,2.84V7.7H44.25L43.7,6.32H40.5L40,7.79H38.21A3.2,3.2,0,0,1,36,7.05a3.21,3.21,0,0,1-.83-2.47A3.74,3.74,0,0,1,36,2a2.89,2.89,0,0,1,2.29-.74h1.46V2.66H38.3A1.7,1.7,0,0,0,37.11,3a2.15,2.15,0,0,0-.46,1.47,2,2,0,0,0,.46,1.56,1.47,1.47,0,0,0,1.1.36h.64l2.1-5h2.29l2.57,6.14V1.37H48.1l2.66,4.49V1.37h1.56V7.7Z" transform="translate(0 0)"/><polygon class="cls-4" points="41.05 4.95 43.15 4.95 42.15 2.38 41.05 4.95"/><polygon class="cls-4" points="25.47 18.14 25.47 12.92 23.09 15.48 25.47 18.14"/><polygon class="cls-3" points="15.67 13.56 15.67 14.75 19.06 14.75 19.06 16.03 15.67 16.03 15.67 17.41 19.42 17.41 21.16 15.48 19.52 13.56 15.67 13.56"/><path class="cls-4" d="M29,13.56H27v1.65h2c.55,0,.92-.28.92-.83a.92.92,0,0,0-1-.82" transform="translate(0 0)"/><path class="cls-5" d="M57.26,15.12V11H53.42a3.06,3.06,0,0,0-1.93.55V11H47.28a3,3,0,0,0-1.84.55V11H38v.55A3.59,3.59,0,0,0,36,11H31.06v.55A3.54,3.54,0,0,0,29,11H23.46l-1.29,1.38L21,11H12.74v9H20.8l1.28-1.37L23.27,20h4.95v-2.1h.64A5.49,5.49,0,0,0,31,17.59v2.47h4.12V17.68h.18c.28,0,.28,0,.28.28v2.1H48a3.66,3.66,0,0,0,2.11-.54v.54h3.94a4.13,4.13,0,0,0,2.19-.45,3.12,3.12,0,0,0,1.47-2.75,3.46,3.46,0,0,0-.46-1.74m-28.4,1.46H27v2.2H24.1l-1.84-2.11-1.92,2.11H14.29v-6.5h6.14l1.83,2.1,1.93-2.1H29c1.19,0,2.57.36,2.57,2.1s-1.38,2.2-2.75,2.2M38,16.22a2,2,0,0,1,.28,1.19v1.28H36.74v-.82a2.1,2.1,0,0,0-.27-1.29c-.19-.27-.55-.27-1.1-.27H33.72v2.38H32.16v-6.5h3.48a3.75,3.75,0,0,1,1.83.27,1.63,1.63,0,0,1,.83,1.47,1.84,1.84,0,0,1-1.1,1.74,1.48,1.48,0,0,1,.82.55m6.32-2.66H40.77v1.19h3.48V16H40.77v1.29h3.57v1.37H39.21v-6.5h5.13Zm3.85,5.13H45.26V17.32h2.93a.74.74,0,0,0,.64-.19.64.64,0,0,0,0-.91.73.73,0,0,0-.55-.19c-1.46-.09-3.2,0-3.2-2,0-.92.55-1.93,2.2-1.93h3v1.56H47.46a1.36,1.36,0,0,0-.64.09c-.19.09-.19.28-.19.46s.19.37.37.46a1.18,1.18,0,0,0,.55.09h.83a2.33,2.33,0,0,1,1.74.55,1.92,1.92,0,0,1,.45,1.37c0,1.38-.82,2-2.38,2m7.88-.64a2.65,2.65,0,0,1-1.92.64H51.22V17.32h2.93a.75.75,0,0,0,.64-.19.67.67,0,0,0,0-.91.74.74,0,0,0-.55-.19C52.77,15.94,51,16,51,14c0-.92.55-1.93,2.2-1.93h3v1.56H53.51a1.36,1.36,0,0,0-.64.09c-.19.09-.19.28-.19.46s.09.37.37.46a1.18,1.18,0,0,0,.55.09h.82a2.3,2.3,0,0,1,1.74.55.09.09,0,0,1,.09.09,2.09,2.09,0,0,1,.37,1.28,1.87,1.87,0,0,1-.55,1.38" transform="translate(0 0)"/><path class="cls-4" d="M36.37,13.74a1.78,1.78,0,0,0-.73-.09H33.81v1.47h1.83a1.78,1.78,0,0,0,.73-.09.72.72,0,0,0,.28-.65.51.51,0,0,0-.28-.64" transform="translate(0 0)"/><path class="cls-4" d="M30,2.75a1.8,1.8,0,0,0-.73-.09H27.39V4.12h1.84A1.8,1.8,0,0,0,30,4a.72.72,0,0,0,.27-.64A.5.5,0,0,0,30,2.75" transform="translate(0 0)"/><polygon class="cls-4" points="41.05 4.95 43.15 4.95 42.15 2.38 41.05 4.95"/><polygon class="cls-4" points="25.47 18.14 25.47 12.92 23.09 15.48 25.47 18.14"/><path class="cls-4" d="M29,13.56H27v1.65h2c.55,0,.92-.28.92-.83a.92.92,0,0,0-1-.82" transform="translate(0 0)"/><path class="cls-4" d="M36.37,13.74a1.78,1.78,0,0,0-.73-.09H33.81v1.47h1.83a1.78,1.78,0,0,0,.73-.09.72.72,0,0,0,.28-.65.51.51,0,0,0-.28-.64" transform="translate(0 0)"/><polygon class="cls-3" points="28.31 18.51 27.03 17.13 27.03 18.69 24 18.69 22.17 16.58 20.16 18.69 14.11 18.69 14.11 12.28 20.25 12.28 22.17 14.38 23.09 13.29 20.8 10.99 12.73 10.99 12.73 19.97 20.8 19.97 22.17 18.6 23.36 19.97 28.31 19.97 28.31 18.51"/><polygon class="cls-3" points="18.78 8.98 17.59 7.7 17.04 7.7 17.04 7.15 15.67 5.77 14.75 7.7 13.47 7.7 11.27 2.66 11.27 7.7 8.15 7.7 7.51 6.32 4.4 6.32 3.76 7.7 2.11 7.7 4.86 1.28 7.15 1.28 9.71 7.42 9.71 1.28 11.09 1.28 9.8 0 8.43 0 8.43 1.1 7.97 0 3.94 0 2.11 4.31 0 8.98 4.76 8.98 5.31 7.61 6.6 7.61 7.24 8.98 12.37 8.98 12.37 7.88 12.83 8.98 15.48 8.98 15.94 7.88 15.94 8.98 18.78 8.98"/><polygon class="cls-3" points="14.57 4.76 13.1 3.3 14.2 5.68 14.57 4.76"/><path class="cls-4" d="M56.25,19.52A3.34,3.34,0,0,0,57.72,17l-1.28-1.28a2.72,2.72,0,0,1,.18.91,1.87,1.87,0,0,1-.55,1.38,2.65,2.65,0,0,1-1.92.64H51.22V17.32h2.93a.75.75,0,0,0,.64-.19.67.67,0,0,0,0-.91.74.74,0,0,0-.55-.19C52.77,15.94,51,16,51,14c0-.92.55-1.74,1.93-1.93l-1-1c-.18.09-.28.18-.37.18v-.55H47.37a2.87,2.87,0,0,0-1.83.55v-.55H38v.55a3.51,3.51,0,0,0-2-.55H31.06v.55A3.48,3.48,0,0,0,29,10.72H23.46l-1.29,1.37L21,10.72H20l2.75,2.75L24.1,12H29c1.19,0,2.57.37,2.57,2.11s-1.29,2.2-2.66,2.2H27v1.37l1.37,1.38V17.68h.46A5.68,5.68,0,0,0,31,17.41v2.47h4.12V17.5h.18c.28,0,.28,0,.28.27v2.11H48a3.59,3.59,0,0,0,2.11-.55v.55h3.94a3.67,3.67,0,0,0,2.19-.36M38,16.22a2,2,0,0,1,.28,1.19v1.28H36.74v-.82a2.1,2.1,0,0,0-.27-1.29c-.19-.27-.55-.27-1.1-.27H33.72v2.38H32.16v-6.5h3.48a3.75,3.75,0,0,1,1.83.27,1.63,1.63,0,0,1,.83,1.47,1.84,1.84,0,0,1-1.1,1.74,1.48,1.48,0,0,1,.82.55m6.32-2.66H40.77v1.19h3.48V16H40.77v1.29h3.57v1.37H39.21v-6.5h5.13Zm3.85,5.13H45.26V17.32h2.93a.74.74,0,0,0,.64-.19.64.64,0,0,0,0-.91.73.73,0,0,0-.55-.19c-1.46-.09-3.2,0-3.2-2,0-.92.55-1.93,2.2-1.93h3v1.56H47.46a1.36,1.36,0,0,0-.64.09c-.19.09-.19.28-.19.46s.19.37.37.46a1.18,1.18,0,0,0,.55.09h.83a2.33,2.33,0,0,1,1.74.55,1.92,1.92,0,0,1,.45,1.37c0,1.38-.82,2-2.38,2" transform="translate(0 0)"/><path class="cls-4" d="M52.59,14.2c0,.28.09.37.37.46a1.16,1.16,0,0,0,.55.09h.82a2.56,2.56,0,0,1,1.28.28l-1.37-1.38h-.82a1.42,1.42,0,0,0-.65.09.72.72,0,0,0-.18.46" transform="translate(0 0)"/><polygon class="cls-4" points="49.38 8.7 49.57 8.98 49.66 8.98 49.38 8.7"/><polygon class="cls-4" points="44.34 3.67 45.9 7.42 45.9 5.22 44.34 3.67"/><path class="cls-4" d="M28.68,6.69h.18c.18,0,.18,0,.18.27V9h6.6V8.43A5.53,5.53,0,0,0,38.11,9h2.75l.55-1.47H42.7L43.24,9h5.32V8.06L47.28,6.78v1H44.16L43.7,6.32H40.5L40,7.79H38.21A3.2,3.2,0,0,1,36,7.05a3.21,3.21,0,0,1-.83-2.47A3.74,3.74,0,0,1,36,2a2.89,2.89,0,0,1,2.29-.74h1.46V2.66H38.3A1.7,1.7,0,0,0,37.11,3a2.15,2.15,0,0,0-.46,1.47,2,2,0,0,0,.46,1.56,1.47,1.47,0,0,0,1.1.36h.64l2.1-5h.92L40.59.09H38.21a5.67,5.67,0,0,0-2.57.55V.09h-4V.64A2.68,2.68,0,0,0,29.87.09H15.12l-1,2.29L13.1.09h-4l1.28,1.28h1.84l1.55,3.39.55.55,1.65-4h2.57V7.79H17v-5L15.39,6.41l2.66,2.66H28.59Zm4.21-5.41h1.56V7.79H32.89ZM24.83,2.66H21.26V3.85h3.48V5.13H21.26V6.41h3.57V7.79H19.7V1.28h5.13Zm2.56,5H25.84V1.19h3.48a3.46,3.46,0,0,1,1.83.28,1.54,1.54,0,0,1,.73,1.46,1.81,1.81,0,0,1-1.1,1.74,1.21,1.21,0,0,1,.74.55,2.33,2.33,0,0,1,.27,1.19V7.7H30.23V6.87A2.21,2.21,0,0,0,30,5.59c-.09-.18-.37-.18-.92-.18H27.39Z" transform="translate(0 0)"/></g></g></g></g></g></svg>