<svg xmlns="http://www.w3.org/2000/svg" viewBox="0 0 28 28.01"><g id="Слой_2" data-name="Слой 2"><g id="Icons"><g id="Фигура_113_1" data-name="Фигура 113 1"><path d="M27.94,6s0,0,0,0a1.08,1.08,0,0,0-.16-.28s0,0,0,0L23.24.31A.82.82,0,0,0,22,.29a1.15,1.15,0,0,0,0,1.46l2.43,2.87a23.74,23.74,0,0,0-7.21.31C6.39,6.89-1.24,16.85.17,27.14a.94.94,0,0,0,.88.87h.14a1,1,0,0,0,.75-1.18C.69,17.65,7.65,8.75,17.48,7a22,22,0,0,1,7.06-.25L20.78,8.94a1.12,1.12,0,0,0-.38,1.4.84.84,0,0,0,1.2.44l5.92-3.51a.91.91,0,0,0,.21-.18h0a1,1,0,0,0,.17-.3.32.32,0,0,0,0-.09.8.8,0,0,0,0-.26s0-.07,0-.1v0A.94.94,0,0,0,27.94,6Z"/></g></g></g></svg>