<svg xmlns="http://www.w3.org/2000/svg" viewBox="0 0 54.31 54.31"><defs><style>.cls-1{fill:none;stroke:#000;stroke-width:2px;}</style></defs><g id="Слой_2" data-name="Слой 2"><g id="Icons"><g id="Эллипс_3_копия_2" data-name="Эллипс 3 копия 2"><circle class="cls-1" cx="27.16" cy="27.16" r="26.16" transform="translate(-8.33 12.46) rotate(-22.5)"/></g><g id="Фигура_677_1_копия_2" data-name="Фигура 677 1 копия 2"><path d="M24.6,27.48a1.16,1.16,0,0,0,0-.18,6108028702212.17,6108028702212.17,0,0,0-.2-.3l-7.87-8a1,1,0,0,0-1.34,0,.9.9,0,0,0,0,1.31l6.24,6.35H2a.93.93,0,1,0,0,1.86H21.48l-6.33,6.34a.92.92,0,0,0,0,1.32,1,1,0,0,0,1.34,0l7.86-7.86s.06-.1.1-.15.07-.09.1-.15a.86.86,0,0,0,0-.17.58.58,0,0,0,0-.18A1,1,0,0,0,24.6,27.48Z"/></g></g></g></svg>