<svg xmlns="http://www.w3.org/2000/svg" viewBox="0 0 24 24"><defs><style>.cls-1,.cls-2{fill:none;}.cls-2{stroke:#323232;stroke-linecap:round;stroke-linejoin:round;stroke-width:1.5px;}</style></defs><g id="Слой_2" data-name="Слой 2"><g id="Icons"><rect class="cls-1" width="24" height="24"/><path class="cls-2" d="M3,7.91H19a2,2,0,0,1,2,2V19a2,2,0,0,1-2,2H5a2,2,0,0,1-2-2V8.29A2,2,0,0,1,4.29,6.42L14.65,2.51A1,1,0,0,1,16,3.45V7.91"/><path id="Shape_3077" data-name="Shape 3077" class="cls-2" d="M16,14.12a.37.37,0,0,0-.37.38.36.36,0,0,0,.37.37.37.37,0,0,0,.38-.37.38.38,0,0,0-.38-.38"/></g></g></svg>