<svg xmlns="http://www.w3.org/2000/svg" viewBox="0 0 24 24"><defs><style>.cls-1,.cls-2,.cls-3{fill:none;}.cls-1,.cls-2{stroke:#323232;stroke-linecap:round;stroke-linejoin:round;stroke-width:1.5px;}.cls-1{fill-rule:evenodd;}</style></defs><g id="Слой_2" data-name="Слой 2"><g id="Icons"><path class="cls-1" d="M20.93,16V8a2,2,0,0,0-1-1.73L13,2.27a2,2,0,0,0-2,0l-6.93,4A2,2,0,0,0,3.07,8v8a2,2,0,0,0,1,1.73l6.93,4a2,2,0,0,0,2,0l6.93-4A2,2,0,0,0,20.93,16Z"/><line class="cls-2" x1="6.17" y1="12.63" x2="9.17" y2="14.37"/><polyline class="cls-2" points="3.34 7 12 12 20.66 7"/><line class="cls-2" x1="12" y1="22" x2="12" y2="12"/><line class="cls-2" x1="7.67" y1="9.5" x2="16.6" y2="4.35"/><path class="cls-3" d="M0,0H24V24H0Z"/></g></g></svg>