<svg xmlns="http://www.w3.org/2000/svg" viewBox="0 0 24 24"><defs><style>.cls-1,.cls-2{fill:none;}.cls-2{stroke:#323232;stroke-linecap:round;stroke-linejoin:round;stroke-width:1.5px;}</style></defs><g id="Слой_2" data-name="Слой 2"><g id="Icons"><rect class="cls-1" width="24" height="24"/><line class="cls-2" x1="16" y1="2" x2="16" y2="6"/><line class="cls-2" x1="8" y1="2" x2="8" y2="6"/><line class="cls-2" x1="3" y1="9" x2="21" y2="9"/><rect class="cls-2" x="3" y="4" width="18" height="17" rx="2"/><path id="Shape_3077" data-name="Shape 3077" class="cls-2" d="M7,12.73a.25.25,0,0,0-.25.25.25.25,0,0,0,.25.25.25.25,0,1,0,0-.5"/><path id="Shape_3077-2" data-name="Shape 3077" class="cls-2" d="M12,12.73a.25.25,0,0,0-.25.25.25.25,0,0,0,.25.25.25.25,0,1,0,0-.5"/><path id="Shape_3077-3" data-name="Shape 3077" class="cls-2" d="M17,12.73a.25.25,0,0,0-.25.25.25.25,0,0,0,.25.25.25.25,0,0,0,0-.5"/><path id="Shape_3077-4" data-name="Shape 3077" class="cls-2" d="M7,16.73a.25.25,0,0,0-.25.25.25.25,0,0,0,.25.25.25.25,0,1,0,0-.5"/><path id="Shape_3077-5" data-name="Shape 3077" class="cls-2" d="M12,16.73a.25.25,0,0,0-.25.25.25.25,0,0,0,.25.25.25.25,0,1,0,0-.5"/></g></g></svg>