<svg xmlns="http://www.w3.org/2000/svg" viewBox="0 0 40.87 105.83"><defs><style>.cls-1{fill:#fff;}.cls-2{fill:#735165;}</style></defs><g id="Слой_2" data-name="Слой 2"><g id="Icons"><path class="cls-1" d="M20.28,56.39c2.91-5.93,7-10.88,8.6-17.06C24.42,44.11,20.13,49,20.28,56.39Z"/><path class="cls-1" d="M22.09,54.73a15.16,15.16,0,0,0-2,6.15c2.39-3.73,5.33-7,7.55-10.81a21.68,21.68,0,0,0,3-12.36C28.91,44,25.32,49.25,22.09,54.73Z"/><path class="cls-1" d="M13.85,40.53c1.84-10.74,1.74-14.14-.4-17C13.27,29.27,12.15,35,13.85,40.53Z"/><path class="cls-1" d="M9.17,21.37c-3.88,8.25-3,17.42,4,22.4C10.24,36.49,7.31,29.36,9.17,21.37Z"/><path class="cls-1" d="M11.54,17.31c-2.44,7.48-2.63,14.85.85,22.07C11,32.06,13.67,24.6,11.54,17.31Z"/><path class="cls-1" d="M30.07,83.46c1.41-8.78,3.81-17,2.45-25.64C28,65.87,28.16,74.33,30.07,83.46Z"/><path class="cls-1" d="M25.62,41.53a18.11,18.11,0,0,0,3.83-6c-1.8,1.6-3.72,3-5.62,4.44a7.28,7.28,0,0,0-1.68,1.94C19,46.84,18.48,52.31,18.52,58.26A3.45,3.45,0,0,0,19.2,56a24.28,24.28,0,0,1,2.45-9A29.27,29.27,0,0,1,25.62,41.53Z"/><path class="cls-1" d="M34,63.63c-.13,6.06-1.73,11.89-2.55,17.83C34.28,75.78,35.76,69.91,34,63.63Z"/><path class="cls-1" d="M25.63,80.56a17.56,17.56,0,0,0,4,7.25c.16.18.48.44.63.39.44-.16.19-.55.1-.83a39.77,39.77,0,0,1-1.76-6.93c-1.15-7.76-.94-15.33,2.7-22.53a5.92,5.92,0,0,0,.88-2.86c-.73.36-.86,1-1.15,1.45-1.65,2.57-3.65,4.91-4.92,7.71C23.67,69.59,24.05,75.05,25.63,80.56Z"/><path class="cls-1" d="M12.27,87c1.62,2.18,3.32,4.33,5.83,5.59a10.61,10.61,0,0,0,7.29,1.08c-6.55-2.62-11.55-7.29-16.53-12A50,50,0,0,0,12.27,87Z"/><path class="cls-1" d="M10.44,64.38a76.15,76.15,0,0,1-1.89-8.54c-1-4.81-3.4-8.94-6-13C2,52.93,6,61.21,12.4,68.58,12.06,67,10.93,65.88,10.44,64.38Z"/><path class="cls-1" d="M1.38,47.18c-2.46,8.78,3.29,20.09,12.3,24C7.28,65.77,2.68,56.17,1.38,47.18Z"/><path class="cls-1" d="M12.72,66.6C14.23,59,11.2,52.85,6.48,47.31a45.7,45.7,0,0,1,4,13.25C10.83,62.7,11.15,64.89,12.72,66.6Z"/><path class="cls-1" d="M26.25,92.55c-4.72-4-9.37-8-15.12-10.46C15.41,86.66,20,90.77,26.25,92.55Z"/><path class="cls-1" d="M10.8,80.43c3.86,1.63,7.13,4.2,10.54,6.53C18.52,83.68,15.32,81,10.8,80.43Z"/><path class="cls-1" d="M31,2.62C23.5,7.15,17.13,20,19.77,27.74,21.64,18.44,24.85,9.9,31,2.62Z"/><path class="cls-1" d="M22.35,21.9c3.57-5.26,7-10.58,8.29-17A38.09,38.09,0,0,0,22.35,21.9Z"/><path class="cls-1" d="M20.12,30.56c7-4.37,13.43-18,11.37-24-.09.08-.24.15-.27.26C29.68,12.28,26.75,17,23.76,21.75A25.63,25.63,0,0,0,20.12,30.56Z"/><path class="cls-2" d="M40.13,104.48l-.16-.12c-9.91-7.17-15.57-17.3-19.45-28.54a77.41,77.41,0,0,1-4.13-24.25c-.07-6,.33-11.85,2.87-17.38a7.54,7.54,0,0,1,2-2.89c6.3-5.06,9.8-11.78,11.37-19.6a9.69,9.69,0,0,0,.15-4.15,7.69,7.69,0,0,1,.38-4.5c.15-.43.27-.88.39-1.32a1.32,1.32,0,0,0-.46-1.6c-.59-.37-1,.13-1.41.41a26.15,26.15,0,0,0-5.49,4.61c-5.64,6.39-9,13.56-7.79,22.38.15,1,.59,2.08.17,3.14-1.92,4.81-2.57,9.88-3.19,15a87.18,87.18,0,0,0,2.83,26.81c-3.72-1.86-4.25-5-4.31-8.36a23.72,23.72,0,0,0-.2-4.76A30,30,0,0,0,7.28,46.69c-2-2.45-4.24-4.77-5.51-7.77-.11-.28-.12-.73-.56-.67s-.56.56-.55.92C.7,44.55-.56,49.9.3,55.29,1,59.77,2.52,63.84,6,67.07a27.86,27.86,0,0,0,11.32,6.84c.83.23,1.64.48,2,1.49a69.71,69.71,0,0,0,5.77,13.69,3.37,3.37,0,0,1-.92-.78C19.73,82.9,14.48,79,7.18,78.66c-.55,0-1.23-.59-1.61.14-.3.56.26,1,.6,1.38A57.92,57.92,0,0,1,11,87c3.68,5.42,8.42,9,15.42,8.5.46,0,.93,0,1.39,0a2.58,2.58,0,0,1,2.36,1.16,35.44,35.44,0,0,0,5.57,6c1.17,1,2.42,1.88,3.67,2.75.38.26.94.82,1.35.17S40.48,104.76,40.13,104.48ZM31.49,6.58c2.06,6-4.34,19.61-11.37,24a25.63,25.63,0,0,1,3.64-8.81c3-4.73,5.92-9.47,7.46-14.91C31.25,6.73,31.4,6.66,31.49,6.58ZM22.35,21.9a38.09,38.09,0,0,1,8.29-17C29.37,11.32,25.92,16.64,22.35,21.9ZM31,2.62c-6.12,7.28-9.33,15.82-11.2,25.12C17.13,20,23.5,7.15,31,2.62Zm-18.25,64c-1.57-1.71-1.89-3.9-2.26-6a45.7,45.7,0,0,0-4-13.25C11.2,52.85,14.23,59,12.72,66.6ZM2.55,42.85c2.6,4,5,8.18,6,13a76.15,76.15,0,0,0,1.89,8.54c.49,1.5,1.62,2.66,2,4.2C6,61.21,2,52.93,2.55,42.85ZM1.38,47.18c1.3,9,5.9,18.59,12.3,24C4.67,67.27-1.08,56,1.38,47.18ZM21.34,87c-3.41-2.33-6.68-4.9-10.54-6.53C15.32,81,18.52,83.68,21.34,87ZM18.1,92.6c-2.51-1.26-4.21-3.41-5.83-5.59a50,50,0,0,1-3.41-5.35c5,4.73,10,9.4,16.53,12A10.61,10.61,0,0,1,18.1,92.6Zm-7-10.51c5.75,2.47,10.4,6.51,15.12,10.46C20,90.77,15.41,86.66,11.13,82.09Z"/><path class="cls-2" d="M25,64.08c-2.64,6-1.73,12,.09,18.35a17.38,17.38,0,0,0,1.27,2.64,13.77,13.77,0,0,0,3.82,4.53c.47.3,1,.61,1.46.3s.34-.83.25-1.3a10.15,10.15,0,0,1,.92-6c.42-1,.85-2,1.22-2.94,1.85-4.93,2.83-10,1.61-15.22-1-4.53-1.92-9.08-1.49-13.78,0-.38.12-.86-.47-.91s-.66.4-.8.76c-1.53,3.94-4.12,7.26-6.35,10.79A21,21,0,0,0,25,64.08Zm9-.45c1.75,6.28.27,12.15-2.55,17.83C32.28,75.52,33.88,69.69,34,63.63ZM30.07,83.46C28.16,74.33,28,65.87,32.52,57.82,33.88,66.45,31.48,74.68,30.07,83.46Zm2.11-28.41a5.92,5.92,0,0,1-.88,2.86c-3.64,7.2-3.85,14.77-2.7,22.53a39.77,39.77,0,0,0,1.76,6.93c.09.28.34.67-.1.83-.15,0-.47-.21-.63-.39a17.56,17.56,0,0,1-4-7.25c-1.58-5.51-2-11,.48-16.35,1.27-2.8,3.27-5.14,4.92-7.71C31.32,56,31.45,55.41,32.18,55.05Z"/><path class="cls-2" d="M15.81,37.57A24.9,24.9,0,0,0,15,23.05c-1.19-3.17-2.43-6.35-2.17-9.85,0-.33,0-.73-.43-.77a1,1,0,0,0-.67.35,3.59,3.59,0,0,0-.54.83c-2.17,4.5-4.28,9-5.17,14a19,19,0,0,0,.93,10.21c1.31,3.44,4,5.93,6.76,8.23.82.67,1.3.27,1.74-.41C14.71,42.91,15.22,40.23,15.81,37.57ZM11.54,17.31c2.13,7.29-.59,14.75.85,22.07C8.91,32.16,9.1,24.79,11.54,17.31ZM9.17,21.37c-1.86,8,1.07,15.12,4,22.4C6.14,38.79,5.29,29.62,9.17,21.37Zm4.68,19.16c-1.7-5.58-.58-11.26-.4-17C15.59,26.39,15.69,29.79,13.85,40.53Z"/><path class="cls-2" d="M31.69,31.13c-.46-.12-.53.28-.66.56-1.23,2.64-3.44,4.4-5.73,6A16.29,16.29,0,0,0,19,46.38c-2,6.12-1.36,12.31-.64,18.51a.56.56,0,0,0,.74.5,4.11,4.11,0,0,0,.38-.65c1.17-2.94,3.23-5.33,4.92-7.94,1.84-2.85,4-5.46,5.49-8.56C32.41,43,31.81,37.32,32,31.77,32,31.51,32,31.21,31.69,31.13ZM19.2,56a3.45,3.45,0,0,1-.68,2.29c0-5.95.47-11.42,3.63-16.33A7.28,7.28,0,0,1,23.83,40c1.9-1.44,3.82-2.84,5.62-4.44a18.11,18.11,0,0,1-3.83,6,29.27,29.27,0,0,0-4,5.47A24.28,24.28,0,0,0,19.2,56Zm9.68-16.64c-1.61,6.18-5.69,11.13-8.6,17.06C20.13,49,24.42,44.11,28.88,39.33ZM27.65,50.07c-2.22,3.78-5.16,7.08-7.55,10.81a15.16,15.16,0,0,1,2-6.15c3.23-5.48,6.82-10.78,8.6-17A21.68,21.68,0,0,1,27.65,50.07Z"/></g></g></svg>