<svg xmlns="http://www.w3.org/2000/svg" viewBox="0 0 158.89 45.9"><g id="Слой_2" data-name="Слой 2"><g id="Icons"><g id="Фигура_503" data-name="Фигура 503"><path d="M140.57,20a42.8,42.8,0,0,0,8.8-4.77,28.56,28.56,0,0,0,6.22-6.1c1.69-2.3,3.28-5.09,3.3-8a.55.55,0,0,0-.3-.47.6.6,0,0,0-.68-.64A35.57,35.57,0,0,0,140,6.9a34.52,34.52,0,0,0-6.76,6.52,34.86,34.86,0,0,0-2.66,3.94,13.87,13.87,0,0,1-2.54,3.45,72.86,72.86,0,0,1-9,3.91l0,0c.89-.6,1.78-1.19,2.67-1.81a31.06,31.06,0,0,0,6.41-5.35c3.4-4.08,4.7-9.28,5.9-14.34.11-.47-.33-1-.84-.84-5.46,1.91-10,5.73-13.64,10.15A28.68,28.68,0,0,0,114.88,20a14.31,14.31,0,0,0-1,6.37,79.55,79.55,0,0,1-22,3,98.37,98.37,0,0,1-18.47-2,40.3,40.3,0,0,0,12.86-4.13,65.09,65.09,0,0,0,9.36-5.89c2.16-1.59,5.55-3.68,5.09-6.81a.86.86,0,0,0-1-.6,13.17,13.17,0,0,1-3.44.09c-1,0-2,0-3,.07a55.82,55.82,0,0,0-5.63.52A40.15,40.15,0,0,0,77,13.48c-5.37,2.37-10.37,6.35-12.81,11.81-7.81-1.91-15.59-4.1-23.45-5.74l-.15-.07a.51.51,0,0,0-.3,0c-1.48-.3-3-.59-4.45-.85A36.58,36.58,0,0,0,46,18a41.57,41.57,0,0,0,7-2.33c1.76-.73,3.61-1.4,5.37-2.2a2.12,2.12,0,0,0,1.83.93c3,0,3-4.66,0-4.66A2.26,2.26,0,0,0,58,12.46c-1.8.55-3.57,1.38-5.3,2A59.66,59.66,0,0,1,46,16.75c-4.61,1.13-9.49,1.16-14.25,1.19,4.65-.4,9.25-1.16,13.44-3.37C49.84,12.1,53.84,8,55.33,2.8a.7.7,0,0,0-.66-.88C48,2.56,41.3,3.28,35.17,6.14c-4.65,2.16-9.5,6-11.12,11.15A64.36,64.36,0,0,0,.15,20.51a.22.22,0,0,0,.12.42c8.51-2.48,17.21-2.74,25.89-1.85a.55.55,0,0,0,.7.21l.2-.11c.84.09,1.68.2,2.52.31a20.44,20.44,0,0,0,1.86,3.75c.81,1.3,1.69,2.57,2.59,3.81a29.41,29.41,0,0,0,6,6.42c5.19,3.9,12.47,5.16,18.78,5.76.85.08,1.14-.91.87-1.53A30.54,30.54,0,0,0,46.4,22.91l-.48-.26c4.92,1.17,9.78,2.44,14.55,3.63S70,28.58,74.8,29.45c1.94,5.31,7.71,9.13,12.67,11.13,7.17,2.9,15.13,2.74,22.7,2a.9.9,0,0,0,.85-1.13c-.41-2-2-3.27-3.63-4.39a44.06,44.06,0,0,0-7.17-4,31.5,31.5,0,0,0-5.36-1.86l.47,0a36.83,36.83,0,0,0,8.08,1.45,65.24,65.24,0,0,0,8.5.33c.29,0,.39-.49.07-.53-2.74-.37-5.48-.78-8.24-1.08-1.26-.13-2.52-.31-3.79-.46a82.34,82.34,0,0,0,13.14-2.31c1.76,2.41,4.92,3.46,7.71,4a43.5,43.5,0,0,0,10.86.84,52.38,52.38,0,0,0,21.5-5.7,1,1,0,0,0,.2-1.51c-2-2.26-5.28-2.88-8.09-3.4a47.92,47.92,0,0,0-9.78-.83h-.17l.2-.08C137.22,21.33,138.91,20.7,140.57,20ZM29.09,17.66c.58-.46,1.16-.91,1.75-1.34q2-1.47,4.17-2.75t4.23-2.36c1.52-.76,3.18-1.32,4.64-2.17a.54.54,0,0,0-.41-1,21.62,21.62,0,0,0-4.63,1.88,50.83,50.83,0,0,0-4.65,2.52Q32,13.8,29.93,15.34a29.6,29.6,0,0,0-2.75,2.14l-1.42-.1a20.23,20.23,0,0,1,3.68-5.47,23.51,23.51,0,0,1,6.62-4.69C41.51,4.57,47.76,4,53.72,3.4,50.55,13.51,38.79,16.63,29.09,17.66ZM50,27.64A26.71,26.71,0,0,1,57.18,37c-5.54-.73-11.67-1.93-16.17-5.25a28.75,28.75,0,0,1-5.8-6.21c-.88-1.2-1.71-2.42-2.6-3.6a17.68,17.68,0,0,0-2.05-2.31c3.29.47,6.58,1.09,9.85,1.79a12,12,0,0,0,3.75,2.53A31,31,0,0,1,50,27.64Zm16.64-2.2c2.5-1.19,4.85-2.67,7.26-4a42.62,42.62,0,0,1,4-2,21.07,21.07,0,0,1,2.22-.83,22.61,22.61,0,0,0,2.31-.66.46.46,0,0,0-.12-.9,10.18,10.18,0,0,0-4.42,1,32.5,32.5,0,0,0-4.26,2.12c-2.72,1.57-5.35,3.33-8.21,4.65a29.18,29.18,0,0,1,12.48-10.3A37.38,37.38,0,0,1,88.32,11.7c1.82-.22,3.65-.34,5.48-.39a24.89,24.89,0,0,1,5,0c-1,2.58-3.85,4.12-6.06,5.68A59.2,59.2,0,0,1,84.54,22,34.34,34.34,0,0,1,66.64,25.44Zm32,8.63a45.85,45.85,0,0,1,6,3.19c1.46.93,3.42,2,4.28,3.62-6.63.62-13.45.66-19.83-1.48a25.88,25.88,0,0,1-7.7-4.07,26.68,26.68,0,0,1-5.11-5.62c.84.14,1.67.28,2.51.4a77.51,77.51,0,0,1,8.12,4.26,16.83,16.83,0,0,0,8.86,2.56.27.27,0,0,0,0-.54c-3.34-.31-6.49-2.09-9.36-3.72-1.26-.71-2.51-1.45-3.83-2.06,2.72.31,5.45.52,8.19.59h.54c.23.06.45.13.67.21C94.22,32.21,96.46,33.11,98.65,34.07ZM116.3,20.12a32.22,32.22,0,0,1,4.6-7.06,30.71,30.71,0,0,1,11.45-8.87c-1.17,4.46-2.54,9.11-5.63,12.58a32.49,32.49,0,0,1-6.24,5c-.92.62-1.82,1.26-2.73,1.89a63.63,63.63,0,0,1,4.38-5.31c.92-1,1.86-2,2.85-2.92a31.19,31.19,0,0,0,3.14-2.93.47.47,0,0,0-.57-.74,13.46,13.46,0,0,0-3.35,2.58,38.15,38.15,0,0,0-3.1,3.13,39,39,0,0,0-4.93,7.1.4.4,0,0,0,0,.23l-1.59,1.12A20.58,20.58,0,0,1,116.3,20.12Zm27.31,4.38a19.69,19.69,0,0,1,7.21,2.23,50.7,50.7,0,0,1-18.57,4.75,51,51,0,0,1-9.8-.29,21.32,21.32,0,0,1-8-2.86s0-.08,0-.12l1.77-.53a30.87,30.87,0,0,0,16.38-.07c.24-.06.13-.4-.1-.36a58,58,0,0,1-8.74.65c-2.27,0-4.54-.21-6.8-.44l.41-.12s.07,0,.11,0c2.66-.16,5.31-1.55,7.91-2.17a49.52,49.52,0,0,1,9.23-1.26A44.36,44.36,0,0,1,143.61,24.5Zm-9-4.1c-1.29.45-2.89.7-3.86,1.74a.51.51,0,0,0-.1.21c-.43,0-.86.12-1.28.19a58.78,58.78,0,0,0,14.73-10c.5-.49-.16-1.4-.76-1a148.72,148.72,0,0,1-13.57,8.41c1.09-1.21,1.94-2.69,2.92-4a39.08,39.08,0,0,1,7.12-7.13A37.76,37.76,0,0,1,157.56,1.5a35,35,0,0,1-3.49,6.74,26.15,26.15,0,0,1-6.28,6,43.88,43.88,0,0,1-8.59,4.49C137.68,19.31,136.14,19.87,134.59,20.4Zm11.77-10.13A4.66,4.66,0,0,0,147,10l.57-.4c.37-.26.75-.52,1.11-.79.73-.56,1.48-1.06,2.19-1.64.22-.17,0-.58-.27-.47A17.18,17.18,0,0,0,148.14,8a13.05,13.05,0,0,0-1.14.81l-.52.41a3.71,3.71,0,0,0-.49.56A.31.31,0,0,0,146.36,10.27ZM37.44,21.88a7.21,7.21,0,0,0-3.58-1.58.19.19,0,0,0,0,.37,8.43,8.43,0,0,1,3.49,2c1.22.92,2.42,1.88,3.59,2.86,2.22,1.89,4.38,3.86,6.56,5.8a.21.21,0,0,0,.3-.3,50.67,50.67,0,0,0-6.81-6.45Q39.23,23.16,37.44,21.88ZM76,41.42,75.48,41a2.52,2.52,0,0,0-1.32-.36,3,3,0,0,0-1.82.75c-3.38-2.83-7-5.45-10.47-8.11-4.2-3.2-8.41-6.38-12.67-9.5-.18-.14-.41.17-.24.31,4.11,3.32,8.26,6.57,12.43,9.82,3.47,2.7,6.92,5.51,10.52,8.06a1.43,1.43,0,0,0-.13.28,2,2,0,0,0-.23,1l.1.69a2.52,2.52,0,0,0,.67,1.16l.53.41a2.51,2.51,0,0,0,1.31.36,2,2,0,0,0,1-.23,1.8,1.8,0,0,0,.84-.54,1.9,1.9,0,0,0,.54-.84,2,2,0,0,0,.23-1l-.1-.7A2.52,2.52,0,0,0,76,41.42Z"/></g></g></g></svg>