<svg xmlns="http://www.w3.org/2000/svg" viewBox="0 0 24 24"><defs><style>.cls-1,.cls-2{fill:none;}.cls-1{stroke:#323232;stroke-linecap:round;stroke-linejoin:round;stroke-width:1.5px;}</style></defs><g id="Слой_2" data-name="Слой 2"><g id="Icons"><line class="cls-1" x1="2" y1="10" x2="2" y2="10"/><line class="cls-1" x1="3" y1="7" x2="2" y2="7"/><line class="cls-1" x1="4" y1="4" x2="2" y2="4"/><line class="cls-1" x1="17" y1="20" x2="3" y2="20"/><path class="cls-1" d="M17.27,4l-1,3.29a1,1,0,0,1-1,.71H12.22a1,1,0,0,1-1-1.29L12.07,4"/><line class="cls-1" x1="8" y1="13" x2="10.13" y2="13"/><path class="cls-1" d="M17.44,16H6.85a2.4,2.4,0,0,1-2.3-3.09l2.16-7.2A2.41,2.41,0,0,1,9,4H19.6a2.4,2.4,0,0,1,2.3,3.09l-2.16,7.2A2.41,2.41,0,0,1,17.44,16Z"/><path class="cls-2" d="M0,0H24V24H0Z"/></g></g></svg>