<svg xmlns="http://www.w3.org/2000/svg" viewBox="0 0 20.63 23.44"><g id="Слой_2" data-name="Слой 2"><g id="Icons"><g id="Фигура_8" data-name="Фигура 8"><path d="M14.2,11a15.93,15.93,0,0,1-1.42-2.74c-.5-1.52,1.26-3.11,1-4.54-.39-2,.53-2.33,1-2.67C15,.33,14.4.12,13.72,0,11.89,3.39,8.16,3.43,6.17,0,5.44.11,4.9.34,5.07,1.05c.54.38,1.33.74.94,2.67C5.7,5.27,7.42,6.52,7.09,8.26,6.83,9.59,6.27,9.79,5.63,11,3.27,15.45,2.53,16.74,0,22a38.2,38.2,0,0,0,20.62,0C17.34,16.61,16.5,15.39,14.2,11Z"/></g></g></g></svg>