<svg xmlns="http://www.w3.org/2000/svg" viewBox="0 0 24 24"><defs><style>.cls-1,.cls-2{fill:none;}.cls-1{stroke:#323232;stroke-linecap:round;stroke-linejoin:round;stroke-width:1.5px;}</style></defs><g id="Слой_2" data-name="Слой 2"><g id="Icons"><rect class="cls-1" x="3" y="3" width="18" height="18" rx="3"/><path class="cls-1" d="M12,11.26C12,8.91,13.63,7,15.65,7a1.57,1.57,0,0,1,1.57,1.57C17.22,10.46,14.88,12,12,12S6.78,10.46,6.78,8.57A1.57,1.57,0,0,1,8.35,7c2,0,3.65,1.91,3.65,4.26"/><path class="cls-1" d="M8,15.85c2.21,0,4-2.09,4-4.66h0c0,2.58,1.79,4.67,4,4.67"/><line class="cls-1" x1="12" y1="3" x2="12" y2="21"/><line class="cls-1" x1="21" y1="12" x2="3" y2="12"/><rect class="cls-2" width="24" height="24"/></g></g></svg>