<svg xmlns="http://www.w3.org/2000/svg" viewBox="0 0 24 24"><defs><style>.cls-1,.cls-2,.cls-3{fill:none;}.cls-1,.cls-2{stroke:#323232;stroke-linecap:round;stroke-linejoin:round;stroke-width:1.5px;}.cls-1{fill-rule:evenodd;}</style></defs><g id="Слой_2" data-name="Слой 2"><g id="Icons"><path class="cls-1" d="M20,8H4A1,1,0,0,0,3,9v2a1,1,0,0,0,1,1H20a1,1,0,0,0,1-1V9A1,1,0,0,0,20,8Z"/><line class="cls-2" x1="12" y1="21" x2="12" y2="8"/><path class="cls-2" d="M15.7,6.61A5.32,5.32,0,0,1,12.1,8"/><path class="cls-2" d="M12.1,8s-.49-3.12.72-4.38"/><path class="cls-2" d="M15.7,6.61a2.18,2.18,0,0,0,0-3,2,2,0,0,0-2.88,0"/><path class="cls-2" d="M8.3,6.61A5.32,5.32,0,0,0,11.9,8"/><path class="cls-2" d="M11.9,8s.49-3.12-.72-4.38"/><path class="cls-2" d="M8.3,6.61a2.18,2.18,0,0,1,0-3,2,2,0,0,1,2.88,0"/><path class="cls-1" d="M19,12v8a1,1,0,0,1-1,1H6a1,1,0,0,1-1-1V12"/><rect class="cls-3" width="24" height="24"/></g></g></svg>