<svg xmlns="http://www.w3.org/2000/svg" viewBox="0 0 16 16"><g id="Слой_2" data-name="Слой 2"><g id="Icons"><g id="Фигура_359_1" data-name="Фигура 359 1"><path d="M14.4,0H1.6A1.6,1.6,0,0,0,0,1.6V14.4A1.6,1.6,0,0,0,1.6,16H14.4A1.6,1.6,0,0,0,16,14.4V1.6A1.6,1.6,0,0,0,14.4,0ZM8,4.8A3.2,3.2,0,1,1,4.8,8,3.21,3.21,0,0,1,8,4.8ZM14.4,14a.38.38,0,0,1-.4.4H2a.38.38,0,0,1-.4-.4V7.2H3.28A2.72,2.72,0,0,0,3.2,8a4.8,4.8,0,0,0,9.6,0,2.72,2.72,0,0,0-.08-.8H14.4Zm0-10.4A.38.38,0,0,1,14,4H12.4a.38.38,0,0,1-.4-.4V2a.38.38,0,0,1,.4-.4H14a.38.38,0,0,1,.4.4Z"/></g></g></g></svg>