<svg xmlns="http://www.w3.org/2000/svg" viewBox="0 0 24 24"><defs><style>.cls-1,.cls-2{fill:none;}.cls-2{stroke:#323232;stroke-linecap:round;stroke-linejoin:round;stroke-width:1.5px;}</style></defs><g id="Слой_2" data-name="Слой 2"><g id="Icons"><rect class="cls-1" width="24" height="24"/><circle class="cls-2" cx="12" cy="10.27" r="2.14"/><path class="cls-2" d="M19,10h0a6.41,6.41,0,0,1-2.3,4.92l-2.3,1.91a6.46,6.46,0,0,0-2,2.9L12,21l-.42-1.27a6.46,6.46,0,0,0-2-2.9L7.3,14.92A6.41,6.41,0,0,1,5,10H5v0a6.9,6.9,0,0,1,7-6.91A6.9,6.9,0,0,1,19,10"/></g></g></svg>