<svg xmlns="http://www.w3.org/2000/svg" xmlns:xlink="http://www.w3.org/1999/xlink" viewBox="0 0 47 28.2"><defs><style>.cls-1{fill:none;}.cls-2{clip-path:url(#clip-path);}.cls-3{fill:#ffb600;}.cls-4{fill:#f7981d;}.cls-5{fill:#ff8500;}.cls-6{fill:#ff5050;}.cls-7{fill:#e52836;}.cls-8{fill:#cb2026;}.cls-9{fill:#fff;}.cls-10{fill:#dce5e5;}</style><clipPath id="clip-path"><rect class="cls-1" width="47" height="28.2"/></clipPath></defs><g id="Слой_2" data-name="Слой 2"><g id="Icons"><g id="Векторный_смарт-объект" data-name="Векторный смарт-объект"><g class="cls-2"><g class="cls-2"><path class="cls-3" d="M47,14.1A14.1,14.1,0,1,1,32.82,0,14.09,14.09,0,0,1,47,14.1"/><path class="cls-4" d="M32.9,0A14.1,14.1,0,1,1,18.8,14.1"/><path class="cls-5" d="M32.9,0a14.1,14.1,0,1,1,0,28.2"/><path class="cls-6" d="M14,0a14.1,14.1,0,0,0,.15,28.2,14.24,14.24,0,0,0,9.47-3.66A13.32,13.32,0,0,0,25,23.05H22.08c-.37-.45-.74-1-1-1.42h5a8.89,8.89,0,0,0,.82-1.49H20.22a8.59,8.59,0,0,1-.6-1.49h7.76a15.07,15.07,0,0,0,.74-4.48,19.16,19.16,0,0,0-.3-3H19.17a13.5,13.5,0,0,1,.37-1.49H27.3a8.73,8.73,0,0,0-.59-1.49H20.14A15.87,15.87,0,0,1,21,6.71h5a7.18,7.18,0,0,0-1.12-1.49H22.08A13.6,13.6,0,0,1,23.5,3.8,13.78,13.78,0,0,0,14,.15C14,0,14,0,14,0"/><path class="cls-7" d="M0,14.1A14.09,14.09,0,0,0,14.1,28.2,14.12,14.12,0,0,0,25,23.05H22.08c-.37-.45-.74-1-1-1.42h5a8.89,8.89,0,0,0,.82-1.49H20.22a8.59,8.59,0,0,1-.6-1.49h7.76a15.07,15.07,0,0,0,.74-4.48,19.16,19.16,0,0,0-.3-3H19.17a13.5,13.5,0,0,1,.37-1.49H27.3a8.73,8.73,0,0,0-.59-1.49H20.14A15.87,15.87,0,0,1,21,6.71h5a7.18,7.18,0,0,0-1.12-1.49H22.08A13.6,13.6,0,0,1,23.5,3.8,13.78,13.78,0,0,0,14,.15H14"/><path class="cls-8" d="M14.1,28.2A14.12,14.12,0,0,0,25,23.05H22.08a16,16,0,0,1-1-1.42h5a8.89,8.89,0,0,0,.82-1.49H20.22a8.59,8.59,0,0,1-.6-1.49h7.76a15.07,15.07,0,0,0,.74-4.48,19.16,19.16,0,0,0-.3-3H19.17a13.5,13.5,0,0,1,.37-1.49H27.3a8.73,8.73,0,0,0-.59-1.49H20.14A15.87,15.87,0,0,1,21,6.71h5a7.18,7.18,0,0,0-1.12-1.49H22.08A13.6,13.6,0,0,1,23.5,3.8,13.78,13.78,0,0,0,14,.15H14"/><path class="cls-9" d="M19.1,17.68l.22-1.27a2.76,2.76,0,0,1-.37.08c-.52,0-.6-.3-.52-.45l.44-2.61h.82L19.92,12h-.75l.15-.9H17.83s-.9,4.93-.9,5.52a1.12,1.12,0,0,0,1.2,1.27,2.42,2.42,0,0,0,1-.22"/><path class="cls-9" d="M19.62,15.29a2.37,2.37,0,0,0,2.61,2.61,4,4,0,0,0,1.57-.22l.29-1.42a4.49,4.49,0,0,1-1.56.37c-1.64,0-1.34-1.19-1.34-1.19h3a9.46,9.46,0,0,0,.23-1.34,2,2,0,0,0-2.17-2.16c-1.56-.15-2.68,1.49-2.68,3.35m2.61-2.16c.82,0,.67,1,.67,1H21.26c0-.07.15-1,1-1"/><path class="cls-9" d="M31.7,17.68,32,16a3.64,3.64,0,0,1-1.27.37,1.51,1.51,0,0,1-1.49-1.71c0-1.8.9-2.76,1.94-2.76a2.49,2.49,0,0,1,1.34.44l.23-1.56A5.21,5.21,0,0,0,31,10.44c-1.71,0-3.43,1.5-3.43,4.33,0,1.86.9,3.13,2.69,3.13a6.78,6.78,0,0,0,1.41-.22"/><path class="cls-9" d="M10.89,11.79a5.45,5.45,0,0,0-1.79.29l-.22,1.27a4.38,4.38,0,0,1,1.64-.3c.52,0,1,.08,1,.53,0,.29-.08.37-.08.37h-.67c-1.27,0-2.68.52-2.68,2.24,0,1.34.89,1.64,1.41,1.64A2.23,2.23,0,0,0,11,17.16l-.07.59h1.34l.6-4.1a1.77,1.77,0,0,0-2-1.86m.3,3.35c0,.23-.15,1.42-1,1.42a.58.58,0,0,1-.6-.6c0-.37.22-.89,1.34-.89a1.2,1.2,0,0,0,.3.07"/><path class="cls-9" d="M14.32,17.83a1.91,1.91,0,0,0,2.24-1.94c0-1.87-1.79-1.49-1.79-2.24,0-.37.3-.52.82-.52.22,0,1.05.07,1.05.07l.22-1.34a5.63,5.63,0,0,0-1.42-.15c-1.12,0-2.24.45-2.24,1.94,0,1.72,1.87,1.57,1.87,2.24,0,.45-.52.52-.9.52a4.93,4.93,0,0,1-1.34-.22l-.22,1.34c.07.15.44.3,1.71.3"/><path class="cls-9" d="M44.09,10.59l-.3,2a2.08,2.08,0,0,0-1.42-.75c-1.34,0-2.54,1.64-2.54,3.58,0,1.19.6,2.46,1.87,2.46a2,2,0,0,0,1.42-.59l-.08.52h1.49l1.12-7.16Zm-.67,4c0,.82-.38,1.86-1.2,1.86-.52,0-.82-.45-.82-1.19,0-1.2.52-1.94,1.2-1.94.52,0,.82.37.82,1.27"/><polygon class="cls-9" points="2.76 17.75 3.65 12.38 3.81 17.75 4.85 17.75 6.79 12.38 5.97 17.75 7.54 17.75 8.73 10.59 6.27 10.59 4.77 14.99 4.7 10.59 2.54 10.59 1.34 17.75 2.76 17.75"/><path class="cls-9" d="M25.89,17.75c.44-2.46.52-4.47,1.56-4.1A5.78,5.78,0,0,1,28,11.94h-.29c-.68,0-1.2.89-1.2.89l.15-.82H25.21l-1,5.82h1.65Z"/><path class="cls-9" d="M35.14,11.79a5.47,5.47,0,0,0-1.8.29l-.22,1.27a4.38,4.38,0,0,1,1.64-.3c.52,0,1,.08,1,.53,0,.29-.07.37-.07.37H35c-1.27,0-2.69.52-2.69,2.24a1.43,1.43,0,0,0,1.42,1.64,2.22,2.22,0,0,0,1.56-.67l-.07.59h1.34l.6-4.1a1.74,1.74,0,0,0-2-1.86m.37,3.35c0,.23-.15,1.42-1,1.42a.58.58,0,0,1-.59-.6c0-.37.22-.89,1.34-.89a.76.76,0,0,0,.3.07"/><path class="cls-9" d="M38.42,17.75c.45-2.46.52-4.47,1.56-4.1a5.71,5.71,0,0,1,.53-1.71h-.3c-.67,0-1.2.89-1.2.89l.15-.82H37.75l-1,5.82h1.64Z"/><path class="cls-10" d="M16.78,16.63A1.12,1.12,0,0,0,18,17.9a3,3,0,0,0,1.12-.22l.22-1.27a2.76,2.76,0,0,1-.37.08c-.52,0-.6-.3-.52-.45l.44-2.61h.82L19.92,12h-.75l.15-.9"/><path class="cls-10" d="M20.37,15.29c0,2.09.67,2.61,1.86,2.61a4,4,0,0,0,1.57-.22l.29-1.42a4.49,4.49,0,0,1-1.56.37c-1.64,0-1.34-1.19-1.34-1.19h3a9.46,9.46,0,0,0,.23-1.34,2,2,0,0,0-2.17-2.16c-1.56-.15-1.93,1.49-1.93,3.35m1.86-2.16c.82,0,1,1,1,1H21.26c0-.07.15-1,1-1"/><path class="cls-10" d="M31.7,17.68,32,16a3.64,3.64,0,0,1-1.27.37,1.51,1.51,0,0,1-1.49-1.71c0-1.8.9-2.76,1.94-2.76a2.49,2.49,0,0,1,1.34.44l.23-1.56A5.21,5.21,0,0,0,31,10.44c-1.71,0-2.68,1.5-2.68,4.33,0,1.86.15,3.13,1.94,3.13a6.78,6.78,0,0,0,1.41-.22"/><path class="cls-10" d="M8.88,13.43a4.38,4.38,0,0,1,1.64-.3c.52,0,1,.07,1,.52,0,.3-.08.37-.08.37h-.67c-1.27,0-2.68.53-2.68,2.24,0,1.34.89,1.64,1.41,1.64A2.23,2.23,0,0,0,11,17.23l-.07.6h1.34l.6-4.1c0-1.72-1.5-1.79-2.09-1.79m1.12,3.2a2.44,2.44,0,0,1-1.79,1.42.58.58,0,0,1-.6-.6c0-.37.22-.89,1.34-.89a6.53,6.53,0,0,0,1,.07"/><path class="cls-10" d="M12.68,17.68a6.32,6.32,0,0,0,1.72.15,1.92,1.92,0,0,0,2.24-1.94c0-1.87-1.8-1.49-1.8-2.24,0-.37.3-.52.83-.52.22,0,1,.07,1,.07l.22-1.34a5.59,5.59,0,0,0-1.41-.15c-1.12,0-1.5.45-1.5,1.94,0,1.72,1.12,1.57,1.12,2.24,0,.45-.52.52-.89.52"/><path class="cls-10" d="M43.79,12.61a2.08,2.08,0,0,0-1.42-.75c-1.34,0-1.79,1.64-1.79,3.58,0,1.19-.15,2.46,1.12,2.46a2,2,0,0,0,1.42-.59l-.08.52h1.49l1.12-7.16m-1.94,3.88c0,.82-.67,1.86-1.49,1.86-.52,0-.82-.45-.82-1.19,0-1.2.52-1.94,1.2-1.94a1.13,1.13,0,0,1,1.11,1.27"/><polygon class="cls-10" points="2.76 17.75 3.65 12.38 3.81 17.75 4.85 17.75 6.79 12.38 5.97 17.75 7.54 17.75 8.73 10.59 6.86 10.59 4.77 14.99 4.7 10.59 3.88 10.59 1.34 17.75 2.76 17.75"/><path class="cls-10" d="M24.32,17.75h1.57c.44-2.46.52-4.47,1.56-4.1A5.78,5.78,0,0,1,28,11.94h-.29c-.68,0-1.2.89-1.2.89l.15-.82"/><path class="cls-10" d="M33.12,13.43a4.38,4.38,0,0,1,1.64-.3c.52,0,1,.07,1,.52,0,.3-.07.37-.07.37H35c-1.27,0-2.69.53-2.69,2.24a1.43,1.43,0,0,0,1.42,1.64,2.22,2.22,0,0,0,1.56-.67l-.07.6h1.34l.6-4.1c0-1.72-1.49-1.79-2.09-1.79m1.12,3.2a2.44,2.44,0,0,1-1.79,1.42.58.58,0,0,1-.6-.6c0-.37.23-.89,1.35-.89a6.88,6.88,0,0,0,1,.07"/><path class="cls-10" d="M36.85,17.75h1.57c.45-2.46.52-4.47,1.56-4.1a5.71,5.71,0,0,1,.53-1.71h-.3c-.67,0-1.2.89-1.2.89l.15-.82"/></g></g></g></g></g></svg>