<svg xmlns="http://www.w3.org/2000/svg" viewBox="0 0 113.71 29.06"><defs><style>.cls-1{fill:#139ad6;}.cls-2{fill:#263b80;}.cls-3{fill:#232c65;}</style></defs><g id="Слой_2" data-name="Слой 2"><g id="Icons"><path class="cls-1" d="M87.9,7.58H81.76a1.2,1.2,0,0,0-.9.72L78.33,24.19a.48.48,0,0,0,.55.54h3.25a.48.48,0,0,0,.54-.54l.72-4.52a.82.82,0,0,1,.9-.72h2q6.23,0,7-5.95a4.73,4.73,0,0,0-.73-4A7.27,7.27,0,0,0,87.9,7.58m.72,6c-.36,2.16-2,2.16-3.61,2.16H83.93l.72-4.15c0-.18.18-.36.54-.36h.36c1.09,0,2.17,0,2.71.72.36.18.36.72.36,1.63"/><path class="cls-2" d="M43.68,7.58H37.54a1.2,1.2,0,0,0-.9.72L34.11,24.19a.48.48,0,0,0,.54.54h2.89a1.23,1.23,0,0,0,.91-.72l.72-4.34a.82.82,0,0,1,.9-.72h2q6.22,0,7-5.95a4.73,4.73,0,0,0-.72-4,6.93,6.93,0,0,0-4.69-1.44m.72,6c-.36,2.16-2,2.16-3.61,2.16h-.9l.72-4.15c0-.18.18-.36.54-.36h.36c1.09,0,2.17,0,2.71.72a1.94,1.94,0,0,1,.18,1.63"/><path class="cls-2" d="M62.27,13.36H59.38c-.18,0-.54.18-.54.36l-.18.9-.18-.36A4.24,4.24,0,0,0,55.05,13,6.93,6.93,0,0,0,48.37,19a5.35,5.35,0,0,0,1.09,4.51,4.52,4.52,0,0,0,3.79,1.45,5.78,5.78,0,0,0,4.15-1.63l-.18.91a.48.48,0,0,0,.54.54h2.71a1.2,1.2,0,0,0,.9-.72L63,13.9c-.18-.18-.54-.54-.72-.54m-4.15,5.77A3.48,3.48,0,0,1,54.69,22a2.93,2.93,0,0,1-2-.72,3.85,3.85,0,0,1-.54-2.17A3.22,3.22,0,0,1,57.4,17a3.14,3.14,0,0,1,.72,2.16"/><path class="cls-1" d="M106.31,13.36h-2.89c-.18,0-.54.18-.54.36l-.18.9-.18-.36A4.24,4.24,0,0,0,99.09,13,6.94,6.94,0,0,0,92.41,19a5.35,5.35,0,0,0,1.09,4.51,4.52,4.52,0,0,0,3.79,1.45,5.78,5.78,0,0,0,4.15-1.63l-.18.91a.48.48,0,0,0,.54.54h2.71a1.2,1.2,0,0,0,.9-.72L107,13.9c-.18-.18-.36-.54-.72-.54m-4.15,5.77A3.48,3.48,0,0,1,98.73,22a2.88,2.88,0,0,1-2-.72,3.77,3.77,0,0,1-.55-2.17A3.22,3.22,0,0,1,101.44,17a2.07,2.07,0,0,1,.72,2.16"/><path class="cls-2" d="M78,13.36H74.91a.94.94,0,0,0-.73.36l-4,6.13-1.8-5.77a.84.84,0,0,0-.91-.54H64.62c-.36,0-.54.36-.54.72l3.25,9.57-3.07,4.33c-.18.36,0,.9.36.9H67.5a.94.94,0,0,0,.73-.36l9.92-14.26c.55-.54.18-1.08-.18-1.08"/><path class="cls-1" d="M109.74,8.12l-2.53,16.25a.48.48,0,0,0,.55.54h2.52a1.23,1.23,0,0,0,.91-.72L113.71,8.3a.48.48,0,0,0-.54-.54h-2.89c-.18-.18-.36,0-.54.36"/><path class="cls-2" d="M20.76,2.17C19.49.72,17.15,0,13.9,0h-9A1.54,1.54,0,0,0,3.61,1.08L0,24.73a.82.82,0,0,0,.72.9h5.6l1.44-8.84v.36A1.54,1.54,0,0,1,9,16.07h2.71c5.24,0,9.21-2.17,10.47-8.13V7.4h0c.18-2.35-.18-3.79-1.44-5.23"/><path class="cls-1" d="M22,7.4v.54c-1.26,6.14-5.23,8.13-10.47,8.13H8.84a1.54,1.54,0,0,0-1.26,1.08l-1.8,11a.66.66,0,0,0,.72.72h4.69a1,1,0,0,0,1.08-.9V27.8l.91-5.6v-.36a1,1,0,0,1,1.08-.9H15c4.51,0,8.12-1.81,9-7.22.36-2.17.18-4.15-.91-5.42A1.84,1.84,0,0,0,22,7.4"/><path class="cls-3" d="M20.76,6.86c-.18,0-.36-.18-.54-.18a.68.68,0,0,1-.55-.18,9.51,9.51,0,0,0-2.34-.18h-7a.66.66,0,0,0-.54.18,1,1,0,0,0-.54.9L7.76,16.79v.36A1.54,1.54,0,0,1,9,16.07h2.71c5.24,0,9.21-2.17,10.47-8.13a.66.66,0,0,1,.18-.54C22,7.22,21.84,7,21.48,7c-.54-.18-.54-.18-.72-.18"/></g></g></svg>