<svg xmlns="http://www.w3.org/2000/svg" viewBox="0 0 24 24"><defs><style>.cls-1,.cls-2{fill:none;}.cls-2{stroke:#323232;stroke-linecap:round;stroke-linejoin:round;stroke-width:1.5px;}</style></defs><g id="Слой_2" data-name="Слой 2"><g id="Icons"><rect class="cls-1" width="24" height="24"/><polyline class="cls-2" points="5.97 6.63 5.3 3.63 3.37 3.63"/><path class="cls-2" d="M7.73,14.83,6,6.62H18.63a1,1,0,0,1,1,1.21l-1.5,7a1,1,0,0,1-1,.79H8.71A1,1,0,0,1,7.73,14.83Z"/><path id="Shape_3077" data-name="Shape 3077" class="cls-2" d="M17.46,19.25a.38.38,0,0,0-.37.37.38.38,0,1,0,.37-.37"/><path id="Shape_3077-2" data-name="Shape 3077" class="cls-2" d="M8.86,19.25a.38.38,0,1,0,.37.37.38.38,0,0,0-.37-.37"/></g></g></svg>