<svg xmlns="http://www.w3.org/2000/svg" xmlns:xlink="http://www.w3.org/1999/xlink" viewBox="0 0 74.14 22.48"><defs><style>.cls-1{fill:none;}.cls-2{clip-path:url(#clip-path);}.cls-3{fill:#3c58bf;}.cls-4{fill:#293688;}.cls-5{fill:#ffbc00;}.cls-6{fill:#f7981d;}.cls-7{fill:#ed7c00;}.cls-8{fill:#051244;}</style><clipPath id="clip-path" transform="translate(0 0)"><rect class="cls-1" width="74.14" height="22.48"/></clipPath></defs><g id="Слой_2" data-name="Слой 2"><g id="Icons"><g id="Векторный_смарт-объект" data-name="Векторный смарт-объект"><g class="cls-2"><polygon class="cls-3" points="27.19 21.89 30.95 0.71 36.84 0.71 33.19 21.89 27.19 21.89"/><polygon class="cls-4" points="27.19 21.89 32.01 0.71 36.84 0.71 33.19 21.89 27.19 21.89"/><g class="cls-2"><path class="cls-3" d="M54.49.94A15,15,0,0,0,49.08,0C43.19,0,39,2.94,39,7.18c0,3.18,2.94,4.82,5.29,5.88s3.06,1.77,3.06,2.71c0,1.41-1.88,2.12-3.53,2.12a12.72,12.72,0,0,1-5.65-1.18l-.82-.35-.83,4.82a19.07,19.07,0,0,0,6.71,1.18c6.24,0,10.36-2.94,10.36-7.41,0-2.47-1.53-4.36-5.06-5.89C46.37,8,45.07,7.41,45.07,6.36s1.06-1.89,3.42-1.89A10.79,10.79,0,0,1,53,5.3l.59.23Z" transform="translate(0 0)"/><path class="cls-4" d="M54.49.94A15,15,0,0,0,49.08,0C43.19,0,40,2.94,40,7.18c0,3.18,1.89,4.82,4.24,5.88s3.06,1.77,3.06,2.71c0,1.41-1.88,2.12-3.53,2.12a12.72,12.72,0,0,1-5.65-1.18l-.82-.35-.83,4.82a19.07,19.07,0,0,0,6.71,1.18c6.24,0,10.36-2.94,10.36-7.41,0-2.47-1.53-4.36-5.06-5.89C46.37,8,45.07,7.41,45.07,6.36s1.06-1.89,3.42-1.89A10.79,10.79,0,0,1,53,5.3l.59.23Z" transform="translate(0 0)"/><path class="cls-3" d="M64.61.71c-1.41,0-2.47.11-3.06,1.53L52.72,21.89h6.36l1.18-3.53h7.53l.7,3.53h5.65L69.2.71ZM61.9,14.83c.36-1.06,2.36-6.24,2.36-6.24s.47-1.29.82-2.12l.36,2s1.17,5.3,1.41,6.48H61.9Z" transform="translate(0 0)"/><path class="cls-4" d="M66,.71C64.61.71,63.55.82,63,2.24L52.72,21.89h6.36l1.18-3.53h7.53l.7,3.53h5.65L69.2.71ZM61.9,14.83c.47-1.18,2.36-6.24,2.36-6.24s.47-1.29.82-2.12l.36,2s1.17,5.3,1.41,6.48H61.9Z" transform="translate(0 0)"/><path class="cls-3" d="M16.36,15.53l-.59-3c-1.06-3.54-4.47-7.42-8.24-9.3L12.83,22h6.35L28.72.82H22.36Z" transform="translate(0 0)"/><path class="cls-4" d="M16.36,15.53l-.59-3c-1.06-3.54-4.47-7.42-8.24-9.3L12.83,22h6.35L28.72.82H23.54Z" transform="translate(0 0)"/><path class="cls-5" d="M0,.71,1.06.94C8.59,2.71,13.77,7.18,15.77,12.48l-2.12-10C13.3,1.06,12.24.71,11,.71Z" transform="translate(0 0)"/><path class="cls-6" d="M0,.71C7.53,2.47,13.77,7.06,15.77,12.36L13.77,4A2.87,2.87,0,0,0,11,1.77Z" transform="translate(0 0)"/><path class="cls-7" d="M0,.71C7.53,2.47,13.77,7.06,15.77,12.36L14.36,7.77c-.36-1.41-.83-2.83-2.47-3.42Z" transform="translate(0 0)"/><path class="cls-8" d="M22.24,14.83l-4-4L16.36,15.3l-.47-2.94c-1.06-3.53-4.47-7.42-8.24-9.3L13,21.89H19.3Z" transform="translate(0 0)"/><polygon class="cls-8" points="33.19 21.89 28.13 16.71 27.19 21.89 33.19 21.89"/><path class="cls-8" d="M46.72,14.59c.47.47.71.83.59,1.3,0,1.41-1.88,2.12-3.53,2.12a12.86,12.86,0,0,1-5.65-1.18l-.82-.35-.83,4.82a19.07,19.07,0,0,0,6.71,1.18c3.77,0,6.83-1.06,8.59-2.94Z" transform="translate(0 0)"/><path class="cls-8" d="M53.55,21.89h5.53l1.18-3.53h7.53l.7,3.53h5.65l-2-8.59L65.08,6.47l.36,1.89s1.17,5.29,1.41,6.47H61.9c.48-1.18,2.36-6.24,2.36-6.24s.47-1.29.82-2.12" transform="translate(0 0)"/></g></g></g></g></g></svg>